<?xml version="1.0" encoding="UTF-8"?>
<svg id="Calque_2" data-name="Calque 2" xmlns="http://www.w3.org/2000/svg" xmlns:xlink="http://www.w3.org/1999/xlink" viewBox="0 0 1499.82 613.86">
  <defs>
    <style>
      .cls-1 {
        fill: none;
      }

      .cls-2 {
        fill: #1b1b1c;
      }

      .cls-3 {
        clip-path: url(#clippath-1);
      }

      .cls-4 {
        clip-path: url(#clippath-2);
      }

      .cls-5 {
        fill: #3c3e93;
      }

      .cls-5, .cls-6, .cls-7 {
        stroke: #1b1b1c;
        stroke-miterlimit: 10;
        stroke-width: 8px;
      }

      .cls-6 {
        fill: #db313f;
      }

      .cls-8 {
        fill: #3c3e92;
      }

      .cls-7, .cls-9 {
        fill: #ffb702;
      }

      .cls-10 {
        clip-path: url(#clippath);
      }
    </style>
    <clipPath id="clippath">
      <path class="cls-1" d="M227.91,439.79l-45.4,53.65-27.65-17.76-23.66,21.61,16.23,28.19-57.66,43.15L4.83,392.68l55.04-55.6,168.04,102.71ZM122.13,447.33l-40.87-28.91,25.3,43.12,15.57-14.22Z"/>
    </clipPath>
    <clipPath id="clippath-1">
      <path class="cls-1" d="M1466.37,480.72c-5.48,6.04-11.37,11.7-17.68,16.98-12.56-10-25.48-19.47-38.74-28.41-13.27-8.94-26.53-17.89-39.76-26.86-2.73,6.63-3.52,13.19-2.38,19.66,1.14,6.48,4.39,12.14,9.73,16.99,2.77,2.52,6.28,4.75,10.52,6.7,4.24,1.95,8.7,3.62,13.38,5.02,4.68,1.4,9.32,2.55,13.94,3.45,4.62.9,8.67,1.6,12.14,2.1l-47.86,42.73c-4.6-.37-9.13-1.26-13.61-2.67-4.48-1.41-8.83-3.2-13.04-5.38-4.22-2.19-8.25-4.64-12.1-7.37-3.85-2.73-7.44-5.61-10.77-8.63-6.87-6.23-12.3-12.87-16.29-19.9-3.99-7.04-6.77-14.33-8.33-21.88-1.57-7.55-2-15.19-1.32-22.92.68-7.73,2.33-15.34,4.96-22.83,2.62-7.49,6.08-14.79,10.37-21.9,4.3-7.11,9.25-13.75,14.85-19.92,5.85-6.45,12.3-12.37,19.33-17.76,7.03-5.39,14.45-9.97,22.26-13.77,7.8-3.79,15.84-6.59,24.11-8.39,8.27-1.8,16.57-2.4,24.89-1.81s16.52,2.59,24.62,6.01c8.09,3.42,15.85,8.49,23.27,15.23,6.18,5.6,11.05,11.57,14.6,17.89,3.56,6.33,5.96,12.81,7.22,19.45s1.46,13.38.64,20.22c-.83,6.84-2.54,13.6-5.13,20.3-2.59,6.69-5.92,13.22-9.98,19.59-4.07,6.36-8.69,12.4-13.84,18.08ZM1429.64,437.54c1.76-1.94,3.36-4.13,4.8-6.55s2.45-4.89,3.02-7.41c.57-2.52.58-5,.03-7.46-.55-2.46-1.97-4.73-4.26-6.81-2.78-2.52-5.9-3.99-9.37-4.42-3.47-.43-6.99-.21-10.56.66s-7.04,2.18-10.4,3.94-6.3,3.52-8.79,5.3l33.45,25.03,2.08-2.29Z"/>
    </clipPath>
    <clipPath id="clippath-2">
      <path class="cls-1" d="M485.41,210.85c3.05,7.96,5.08,15.99,6.08,24.08,1,8.1,1.01,16.04.04,23.84s-2.9,15.33-5.78,22.61c-2.88,7.28-6.66,14.02-11.36,20.24-4.69,6.21-10.26,11.79-16.69,16.71-6.44,4.93-13.72,8.95-21.86,12.07-7.88,3.02-15.76,4.89-23.66,5.61-7.9.72-15.66.46-23.26-.79-7.6-1.25-14.9-3.47-21.89-6.65-6.99-3.19-13.46-7.23-19.4-12.13-5.94-4.89-11.27-10.55-15.99-16.97-4.72-6.42-8.57-13.52-11.56-21.31-2.92-7.61-4.86-15.42-5.83-23.43-.96-8.01-.96-15.91.01-23.71s2.87-15.35,5.69-22.65c2.82-7.3,6.51-14.09,11.08-20.36,4.57-6.27,9.98-11.85,16.22-16.76,6.25-4.9,13.31-8.87,21.18-11.89,12.68-4.86,25.01-7.33,36.97-7.41,11.96-.07,23.04,2.13,33.23,6.59,10.19,4.47,19.31,11.11,27.36,19.91,8.04,8.81,14.51,19.6,19.41,32.37ZM428.46,236.61c-1.44-3.76-3.39-7.2-5.84-10.33-2.45-3.13-5.26-5.66-8.41-7.61-3.16-1.95-6.62-3.19-10.37-3.7-3.76-.51-7.65,0-11.68,1.54-4.11,1.58-7.5,3.73-10.17,6.46-2.67,2.73-4.66,5.83-5.99,9.3-1.33,3.47-1.94,7.17-1.84,11.09.1,3.93.89,7.81,2.36,11.66,1.41,3.67,3.34,7.15,5.8,10.42,2.46,3.27,5.31,5.99,8.55,8.16s6.76,3.58,10.58,4.22c3.81.65,7.77.18,11.88-1.4,4.11-1.58,7.5-3.8,10.15-6.68s4.6-6.13,5.82-9.76c1.22-3.63,1.75-7.47,1.6-11.53-.15-4.06-.97-8.01-2.44-11.86Z"/>
    </clipPath>
  </defs>
  <g id="Calque_1-2" data-name="Calque 1">
    <path class="cls-6" d="M227.91,439.79l-45.4,53.65-27.65-17.76-23.66,21.61,16.23,28.19-57.66,43.15L4.83,392.68l55.04-55.6,168.04,102.71ZM122.13,447.33l-40.87-28.91,25.3,43.12,15.57-14.22Z"/>
    <path class="cls-5" d="M278.02,201.58l-.2,105.09,83.91,42.71-40.68,46.15-52.36-31.96,4.5,64.71-63.26,12.84,1.8-96.52-81.98-43.88,46.95-46.67,46.14,31.48-5.56-56.17,60.75-27.76Z"/>
    <path class="cls-7" d="M485.41,210.85c3.05,7.96,5.08,15.99,6.08,24.08,1,8.1,1.01,16.04.04,23.84s-2.9,15.33-5.78,22.61c-2.88,7.28-6.66,14.02-11.36,20.24-4.69,6.21-10.26,11.79-16.69,16.71-6.44,4.93-13.72,8.95-21.86,12.07-7.88,3.02-15.76,4.89-23.66,5.61-7.9.72-15.66.46-23.26-.79-7.6-1.25-14.9-3.47-21.89-6.65-6.99-3.19-13.46-7.23-19.4-12.13-5.94-4.89-11.27-10.55-15.99-16.97-4.72-6.42-8.57-13.52-11.56-21.31-2.92-7.61-4.86-15.42-5.83-23.43-.96-8.01-.96-15.91.01-23.71s2.87-15.35,5.69-22.65c2.82-7.3,6.51-14.09,11.08-20.36,4.57-6.27,9.98-11.85,16.22-16.76,6.25-4.9,13.31-8.87,21.18-11.89,12.68-4.86,25.01-7.33,36.97-7.41,11.96-.07,23.04,2.13,33.23,6.59,10.19,4.47,19.31,11.11,27.36,19.91,8.04,8.81,14.51,19.6,19.41,32.37ZM428.46,236.61c-1.44-3.76-3.39-7.2-5.84-10.33-2.45-3.13-5.26-5.66-8.41-7.61-3.16-1.95-6.62-3.19-10.37-3.7-3.76-.51-7.65,0-11.68,1.54-4.11,1.58-7.5,3.73-10.17,6.46-2.67,2.73-4.66,5.83-5.99,9.3-1.33,3.47-1.94,7.17-1.84,11.09.1,3.93.89,7.81,2.36,11.66,1.41,3.67,3.34,7.15,5.8,10.42,2.46,3.27,5.31,5.99,8.55,8.16s6.76,3.58,10.58,4.22c3.81.65,7.77.18,11.88-1.4,4.11-1.58,7.5-3.8,10.15-6.68s4.6-6.13,5.82-9.76c1.22-3.63,1.75-7.47,1.6-11.53-.15-4.06-.97-8.01-2.44-11.86Z"/>
    <path class="cls-6" d="M664.45,150.6c1.23,7.2,1.73,13.84,1.49,19.92-.24,6.08-1.28,11.79-3.12,17.14-1.84,5.36-4.53,10.47-8.06,15.36-3.54,4.88-7.98,9.73-13.34,14.55l43.03,53.08-60.24,22.87-31.45-55.35-17.08,3.5,7.38,58.05-59.56,10.21c-3.15-21.13-6.3-42.17-9.46-63.11-3.16-20.94-6.27-41.99-9.32-63.14-1.64-10.65-3.26-21.21-4.86-31.68s-3.04-21.06-4.31-31.77c6.05-3.51,12.08-6.58,18.09-9.23,6.01-2.65,12.1-4.95,18.28-6.91,6.18-1.96,12.49-3.66,18.95-5.1,6.45-1.44,13.1-2.74,19.93-3.91,10.53-1.8,20.96-2.1,31.29-.87,10.33,1.22,19.79,4.1,28.35,8.62,8.57,4.52,15.88,10.73,21.94,18.62,6.06,7.9,10.08,17.62,12.06,29.16ZM603.15,165.67c-.67-3.88-1.81-7.34-3.42-10.39-1.62-3.05-3.67-5.57-6.14-7.57-2.48-2-5.39-3.4-8.71-4.21-3.32-.81-7.06-.86-11.22-.15-1.85.32-3.63.74-5.34,1.27-1.72.53-3.37,1.17-4.95,1.92l6.62,51.91,3.32-.57c3.97-.68,7.93-1.88,11.86-3.6,3.93-1.72,7.36-3.92,10.28-6.61,2.91-2.68,5.12-5.87,6.63-9.55,1.51-3.68,1.87-7.83,1.08-12.45Z"/>
    <path class="cls-6" d="M845.77,174.03c-.13,8.15-.83,16.29-2.09,24.42-16.04.77-31.99,2.17-47.86,4.2-15.87,2.04-31.74,4.05-47.61,6.03,2.33,6.78,6.05,12.23,11.19,16.35,5.13,4.11,11.3,6.23,18.52,6.35,3.75.06,7.85-.57,12.33-1.91,4.47-1.33,8.93-3.02,13.36-5.05,4.44-2.03,8.69-4.24,12.76-6.61,4.07-2.37,7.57-4.51,10.51-6.43l-7.8,63.69c-3.7,2.75-7.69,5.07-11.99,6.97-4.3,1.9-8.75,3.42-13.36,4.56-4.61,1.14-9.26,1.96-13.96,2.44-4.69.48-9.29.69-13.79.62-9.28-.15-17.73-1.56-25.37-4.21-7.64-2.66-14.54-6.31-20.69-10.95-6.15-4.65-11.52-10.1-16.1-16.36s-8.36-13.07-11.33-20.43c-2.97-7.36-5.19-15.12-6.64-23.3-1.46-8.18-2.12-16.43-1.98-24.77.14-8.71,1.08-17.41,2.82-26.1,1.73-8.68,4.29-17.03,7.65-25.03,3.37-8,7.56-15.41,12.6-22.21s10.86-12.73,17.51-17.77c6.64-5.04,14.13-8.95,22.47-11.72,8.34-2.77,17.52-4.07,27.54-3.9,8.33.14,15.93,1.41,22.78,3.82,6.85,2.41,12.93,5.69,18.25,9.86s9.92,9.09,13.81,14.77,7.07,11.9,9.54,18.64c2.46,6.74,4.27,13.84,5.41,21.31,1.15,7.47,1.65,15.05,1.53,22.72ZM789.68,165.79c.04-2.62-.19-5.32-.71-8.09-.52-2.77-1.39-5.29-2.61-7.56-1.23-2.27-2.86-4.15-4.9-5.63-2.04-1.49-4.6-2.26-7.69-2.31-3.75-.06-7.06.89-9.96,2.86-2.89,1.97-5.39,4.46-7.5,7.47-2.11,3.01-3.85,6.29-5.22,9.83s-2.41,6.8-3.11,9.79l41.66-3.25.05-3.09ZM842.35,39.88c-11.25,5.91-22.22,11.89-32.9,17.94-10.69,6.05-21.38,12.65-32.09,19.78l-17.66-19.97c1.91-2.22,4.2-4.69,6.87-7.41,2.67-2.72,5.5-5.51,8.5-8.36,3-2.86,6.11-5.73,9.35-8.63,3.23-2.9,6.37-5.68,9.41-8.35,7.23-6.35,14.78-12.73,22.67-19.16l25.86,34.16Z"/>
    <path class="cls-6" d="M1018.61,291.92c-5.46,4.5-11.77,8.1-18.94,10.79-7.18,2.7-14.67,4.61-22.47,5.74-7.8,1.13-15.65,1.55-23.54,1.28s-15.27-1.14-22.15-2.59c-13.29-2.81-25.05-7.64-35.29-14.49-10.24-6.85-18.56-15.15-24.98-24.88-6.42-9.73-10.75-20.63-12.98-32.69-2.25-12.06-1.98-24.64.79-37.75,2.11-9.99,5.31-19.46,9.6-28.42,4.28-8.96,9.43-17.11,15.44-24.46,6.01-7.35,12.8-13.81,20.4-19.39,7.59-5.58,15.81-10.02,24.65-13.32,8.83-3.3,18.19-5.32,28.07-6.06,9.87-.74,20.04,0,30.48,2.21,3.94.83,8.13,1.88,12.55,3.15,4.42,1.27,8.78,2.76,13.06,4.48s8.39,3.71,12.31,5.98c3.92,2.27,7.41,4.78,10.48,7.53l-14.95,51.71c-4.73-3.01-9.75-5.43-15.05-7.27-5.31-1.84-10.57-3.31-15.8-4.41-7.33-1.55-14.39-2.01-21.18-1.39s-12.95,2.36-18.48,5.21c-5.54,2.85-10.28,6.88-14.25,12.07-3.97,5.19-6.76,11.6-8.37,19.21-1.01,4.77-1.34,9.51-.99,14.22.35,4.72,1.46,9.07,3.35,13.06,1.89,3.99,4.55,7.45,8,10.38,3.45,2.93,7.74,4.94,12.88,6.02,3.48.74,7.18,1.04,11.08.9,3.91-.13,7.42-1.02,10.55-2.66l2.82-10.61-32.88-7.52,10.36-40.9c13.75,2.43,27.49,4.92,41.22,7.49,13.73,2.57,27.57,5.03,41.53,7.41l-17.29,90Z"/>
    <path class="cls-6" d="M1181.22,382.28l-67.61-19.19,4.76-32.51-29.45-12.62-18.97,26.43-63.11-34.69,125.14-150.03,73.37,27.16-24.13,195.46ZM1130.65,289.06l9.45-49.16-28.82,40.86,19.38,8.3Z"/>
    <path class="cls-6" d="M1314.59,398.17l-38.84,49.19-104.4-56.47,112.76-166.07,61.36,39.69-78.8,102.68,47.91,30.99Z"/>
    <path class="cls-6" d="M1466.37,480.72c-5.48,6.04-11.37,11.7-17.68,16.98-12.56-10-25.48-19.47-38.74-28.41-13.27-8.94-26.53-17.89-39.76-26.86-2.73,6.63-3.52,13.19-2.38,19.66,1.14,6.48,4.39,12.14,9.73,16.99,2.77,2.52,6.28,4.75,10.52,6.7,4.24,1.95,8.7,3.62,13.38,5.02,4.68,1.4,9.32,2.55,13.94,3.45,4.62.9,8.67,1.6,12.14,2.1l-47.86,42.73c-4.6-.37-9.13-1.26-13.61-2.67-4.48-1.41-8.83-3.2-13.04-5.38-4.22-2.19-8.25-4.64-12.1-7.37-3.85-2.73-7.44-5.61-10.77-8.63-6.87-6.23-12.3-12.87-16.29-19.9-3.99-7.04-6.77-14.33-8.33-21.88-1.57-7.55-2-15.19-1.32-22.92.68-7.73,2.33-15.34,4.96-22.83,2.62-7.49,6.08-14.79,10.37-21.9,4.3-7.11,9.25-13.75,14.85-19.92,5.85-6.45,12.3-12.37,19.33-17.76,7.03-5.39,14.45-9.97,22.26-13.77,7.8-3.79,15.84-6.59,24.11-8.39,8.27-1.8,16.57-2.4,24.89-1.81s16.52,2.59,24.62,6.01c8.09,3.42,15.85,8.49,23.27,15.23,6.18,5.6,11.05,11.57,14.6,17.89,3.56,6.33,5.96,12.81,7.22,19.45s1.46,13.38.64,20.22c-.83,6.84-2.54,13.6-5.13,20.3-2.59,6.69-5.92,13.22-9.98,19.59-4.07,6.36-8.69,12.4-13.84,18.08ZM1429.64,437.54c1.76-1.94,3.36-4.13,4.8-6.55s2.45-4.89,3.02-7.41c.57-2.52.58-5,.03-7.46-.55-2.46-1.97-4.73-4.26-6.81-2.78-2.52-5.9-3.99-9.37-4.42-3.47-.43-6.99-.21-10.56.66s-7.04,2.18-10.4,3.94-6.3,3.52-8.79,5.3l33.45,25.03,2.08-2.29Z"/>
    <g>
      <rect class="cls-8" x="140.39" y="72.64" width="51.38" height="51.38" transform="translate(-20.89 146.24) rotate(-45)"/>
      <rect class="cls-8" x="272.42" y="72.64" width="51.38" height="51.38" transform="translate(17.78 239.6) rotate(-45)"/>
      <rect class="cls-8" x="404.45" y="72.64" width="51.38" height="51.38" transform="translate(56.45 332.96) rotate(-45)"/>
    </g>
    <path class="cls-8" d="M1215,498.07l-112.26-112.26-24.16,24.16-27.68-27.68-115.79,115.79,115.79,115.79,27.68-27.68,24.16,24.16,112.26-112.26ZM1050.9,606.8l-108.73-108.73,108.73-108.73,24.16,24.16-84.58,84.58,84.58,84.58-24.16,24.16Z"/>
    <polygon class="cls-9" points="1171.35 478.89 1152.23 488.94 1155.88 467.65 1140.41 452.58 1161.79 449.47 1171.35 430.1 1180.91 449.47 1202.28 452.58 1186.82 467.65 1190.47 488.94 1171.35 478.89"/>
    <polygon class="cls-8" points="133.3 545.27 122.51 511.55 111.72 545.27 78 556.06 111.72 566.85 122.51 600.57 133.3 566.85 167.02 556.06 133.3 545.27"/>
    <polygon class="cls-9" points="1102.33 94.58 1091.54 60.86 1080.75 94.58 1047.03 105.37 1080.75 116.16 1091.54 149.88 1102.33 116.16 1136.05 105.37 1102.33 94.58"/>
    <path class="cls-9" d="M684.11,366.21c-4.45-4.25-10.4-6.66-16.54-6.84-12.41-.38-21.5,8.83-28.72,17.72-.24.3-.45.62-.66.95-2.49,3.06-5.02,6.1-8.02,8.69.03-.03-.73.58-.95.77-.22.15-.53.36-.58.4-.85.57-1.72,1.1-2.63,1.56.01,0-.78.34-1.06.48-.36.12-1,.33-.97.32-.43.13-.87.22-1.3.34-.15.04-.26.07-.34.1-.03,0-.03,0-.07,0-.95.02-1.88.02-2.83,0-.04,0-.06,0-.11-.02-.53-.12-1.06-.24-1.58-.4-.05-.02-.31-.1-.54-.17-.26-.12-.94-.41-1.05-.47-.38-.21-.74-.45-1.12-.66-.14-.08-.23-.13-.31-.17-.02-.02-.02-.03-.05-.05-.65-.62-1.28-1.25-1.9-1.9-.03-.04-.04-.06-.07-.1-.28-.44-.56-.87-.81-1.33-.2-.36-.37-.74-.56-1.11-.02-.08-.04-.17-.07-.3-.1-.4-.24-.79-.34-1.2-.06-.24-.32-2.03-.17-.7-.7-6.02-2.96-11.65-7.42-15.91-4.45-4.25-10.4-6.66-16.54-6.84-12.41-.38-21.5,8.83-28.72,17.72-.24.3-.45.62-.66.95-2.49,3.06-5.02,6.1-8.02,8.69.03-.03-.73.58-.95.77-.22.15-.53.36-.58.4-.85.57-1.72,1.1-2.63,1.56.01,0-.78.34-1.06.48-.36.12-1,.33-.97.32-.43.13-.87.22-1.3.34-.15.04-.26.07-.33.1-.03,0-.03,0-.07,0-.95.02-1.88.02-2.83,0-.04,0-.06,0-.11-.02-.53-.12-1.06-.24-1.58-.4-.05-.02-.31-.1-.54-.17-.26-.12-.94-.41-1.05-.47-.38-.21-.74-.45-1.12-.66-.14-.08-.23-.13-.31-.17-.02-.02-.02-.03-.05-.05-.65-.62-1.28-1.25-1.9-1.9-.03-.04-.04-.06-.07-.1-.28-.44-.56-.87-.81-1.33-.2-.36-.37-.74-.56-1.11-.02-.08-.04-.17-.07-.3-.1-.4-.24-.79-.34-1.2-.06-.25-.35-2.23-.16-.53-.42-3.74-3.02-7.41-7.22-7.22-3.55.16-7.67,3.2-7.22,7.22.68,6.08,2.94,11.76,7.45,16.06,4.45,4.25,10.4,6.66,16.54,6.84,12.41.38,21.5-8.83,28.72-17.72.24-.3.45-.62.66-.95,2.49-3.06,5.02-6.11,8.02-8.69-.03.03.73-.58.95-.77.22-.15.53-.37.58-.4.85-.57,1.72-1.1,2.63-1.56-.01,0,.78-.34,1.06-.48.36-.12,1-.33.97-.32.43-.13.87-.22,1.3-.34.15-.04.26-.07.33-.1.03,0,.03,0,.07,0,.95-.02,1.88-.02,2.83,0,.04,0,.06,0,.11.02.53.12,1.06.24,1.58.4.05.02.31.1.54.17.26.12.94.41,1.04.47.38.21.74.45,1.12.66.14.08.23.13.31.17.02.02.02.03.05.06.65.62,1.28,1.25,1.9,1.9.03.04.04.06.07.1.28.44.56.87.81,1.33.2.36.37.74.56,1.11.02.08.04.16.07.3.1.4.24.79.34,1.2.06.24.32,2.03.17.7.7,6.02,2.96,11.65,7.42,15.91,4.45,4.25,10.4,6.66,16.54,6.84,12.41.38,21.5-8.83,28.72-17.72.24-.3.45-.62.66-.95,2.49-3.06,5.02-6.11,8.02-8.69-.03.03.73-.58.95-.77.22-.15.53-.37.58-.4.85-.57,1.72-1.1,2.63-1.56-.01,0,.78-.34,1.06-.48.36-.12,1-.33.97-.32.43-.13.87-.22,1.3-.34.15-.04.26-.07.33-.1.03,0,.03,0,.07,0,.95-.02,1.88-.02,2.83,0,.04,0,.06,0,.11.02.53.12,1.06.24,1.58.4.05.02.31.1.54.17.26.12.94.41,1.05.47.38.21.74.45,1.12.66.14.08.23.13.3.17.02.02.02.03.05.06.65.62,1.28,1.25,1.9,1.9.03.04.04.06.07.1.28.44.56.87.81,1.33.2.36.37.74.56,1.11.02.08.04.16.07.3.1.4.24.79.34,1.2.06.25.35,2.23.16.53.42,3.74,3.02,7.41,7.22,7.22,3.55-.16,7.67-3.2,7.22-7.22-.68-6.08-2.94-11.76-7.45-16.06ZM538.72,390.71c.45.03.44.08,0,0h0ZM587.62,373.86c-.45-.03-.44-.08,0,0h0ZM619.5,390.71c.45.03.44.08,0,0h0ZM668.39,373.86c-.45-.03-.44-.08,0,0h0Z"/>
    <g class="cls-10">
      <g>
        <g>
          <path class="cls-2" d="M105.43,615.28c0,1.97-1.6,3.57-3.57,3.57s-3.57-1.6-3.57-3.57,1.6-3.57,3.57-3.57,3.57,1.6,3.57,3.57Z"/>
          <circle class="cls-2" cx="129.73" cy="615.28" r="3.57"/>
          <path class="cls-2" d="M161.17,615.28c0,1.97-1.6,3.57-3.57,3.57s-3.57-1.6-3.57-3.57,1.6-3.57,3.57-3.57,3.57,1.6,3.57,3.57Z"/>
          <path class="cls-2" d="M105.43,591.07c0,1.97-1.6,3.57-3.57,3.57s-3.57-1.6-3.57-3.57,1.6-3.57,3.57-3.57,3.57,1.6,3.57,3.57Z"/>
          <path class="cls-2" d="M133.3,591.07c0,1.97-1.6,3.57-3.57,3.57s-3.57-1.6-3.57-3.57,1.6-3.57,3.57-3.57,3.57,1.6,3.57,3.57Z"/>
          <path class="cls-2" d="M77.56,566.85c0,1.97-1.6,3.57-3.57,3.57s-3.57-1.6-3.57-3.57,1.6-3.57,3.57-3.57,3.57,1.6,3.57,3.57Z"/>
          <path class="cls-2" d="M105.43,566.85c0,1.97-1.6,3.57-3.57,3.57s-3.57-1.6-3.57-3.57,1.6-3.57,3.57-3.57,3.57,1.6,3.57,3.57Z"/>
          <path class="cls-2" d="M133.3,566.85c0,1.97-1.6,3.57-3.57,3.57s-3.57-1.6-3.57-3.57,1.6-3.57,3.57-3.57,3.57,1.6,3.57,3.57Z"/>
          <path class="cls-2" d="M49.69,542.63c0,1.97-1.6,3.57-3.57,3.57s-3.57-1.6-3.57-3.57,1.6-3.57,3.57-3.57,3.57,1.6,3.57,3.57Z"/>
          <path class="cls-2" d="M77.56,542.63c0,1.97-1.6,3.57-3.57,3.57s-3.57-1.6-3.57-3.57,1.6-3.57,3.57-3.57,3.57,1.6,3.57,3.57Z"/>
          <path class="cls-2" d="M105.43,542.63c0,1.97-1.6,3.57-3.57,3.57s-3.57-1.6-3.57-3.57,1.6-3.57,3.57-3.57,3.57,1.6,3.57,3.57Z"/>
          <path class="cls-2" d="M21.82,518.41c0,1.97-1.6,3.57-3.57,3.57s-3.57-1.6-3.57-3.57,1.6-3.57,3.57-3.57,3.57,1.6,3.57,3.57Z"/>
          <path class="cls-2" d="M49.69,518.41c0,1.97-1.6,3.57-3.57,3.57s-3.57-1.6-3.57-3.57,1.6-3.57,3.57-3.57,3.57,1.6,3.57,3.57Z"/>
          <path class="cls-2" d="M77.56,518.41c0,1.97-1.6,3.57-3.57,3.57s-3.57-1.6-3.57-3.57,1.6-3.57,3.57-3.57,3.57,1.6,3.57,3.57Z"/>
          <path class="cls-2" d="M105.43,518.41c0,1.97-1.6,3.57-3.57,3.57s-3.57-1.6-3.57-3.57,1.6-3.57,3.57-3.57,3.57,1.6,3.57,3.57Z"/>
          <path class="cls-2" d="M21.82,494.2c0,1.97-1.6,3.57-3.57,3.57s-3.57-1.6-3.57-3.57,1.6-3.57,3.57-3.57,3.57,1.6,3.57,3.57Z"/>
          <path class="cls-2" d="M49.69,494.2c0,1.97-1.6,3.57-3.57,3.57s-3.57-1.6-3.57-3.57,1.6-3.57,3.57-3.57,3.57,1.6,3.57,3.57Z"/>
          <path class="cls-2" d="M77.56,494.2c0,1.97-1.6,3.57-3.57,3.57s-3.57-1.6-3.57-3.57,1.6-3.57,3.57-3.57,3.57,1.6,3.57,3.57Z"/>
          <path class="cls-2" d="M21.82,469.98c0,1.97-1.6,3.57-3.57,3.57s-3.57-1.6-3.57-3.57,1.6-3.57,3.57-3.57,3.57,1.6,3.57,3.57Z"/>
          <path class="cls-2" d="M49.69,469.98c0,1.97-1.6,3.57-3.57,3.57s-3.57-1.6-3.57-3.57,1.6-3.57,3.57-3.57,3.57,1.6,3.57,3.57Z"/>
          <path class="cls-2" d="M77.56,469.98c0,1.97-1.6,3.57-3.57,3.57s-3.57-1.6-3.57-3.57,1.6-3.57,3.57-3.57,3.57,1.6,3.57,3.57Z"/>
          <path class="cls-2" d="M21.82,445.76c0,1.97-1.6,3.57-3.57,3.57s-3.57-1.6-3.57-3.57,1.6-3.57,3.57-3.57,3.57,1.6,3.57,3.57Z"/>
          <path class="cls-2" d="M49.69,445.76c0,1.97-1.6,3.57-3.57,3.57s-3.57-1.6-3.57-3.57,1.6-3.57,3.57-3.57,3.57,1.6,3.57,3.57Z"/>
          <path class="cls-2" d="M21.82,421.55c0,1.97-1.6,3.57-3.57,3.57s-3.57-1.6-3.57-3.57,1.6-3.57,3.57-3.57,3.57,1.6,3.57,3.57Z"/>
          <path class="cls-2" d="M49.69,421.55c0,1.97-1.6,3.57-3.57,3.57s-3.57-1.6-3.57-3.57,1.6-3.57,3.57-3.57,3.57,1.6,3.57,3.57Z"/>
          <path class="cls-2" d="M21.82,397.33c0,1.97-1.6,3.57-3.57,3.57s-3.57-1.6-3.57-3.57,1.6-3.57,3.57-3.57,3.57,1.6,3.57,3.57Z"/>
          <path class="cls-2" d="M21.82,373.11c0,1.97-1.6,3.57-3.57,3.57s-3.57-1.6-3.57-3.57,1.6-3.57,3.57-3.57,3.57,1.6,3.57,3.57Z"/>
        </g>
        <g>
          <path class="cls-2" d="M105.43,494.28c0,1.97-1.6,3.57-3.57,3.57s-3.57-1.6-3.57-3.57,1.6-3.57,3.57-3.57,3.57,1.6,3.57,3.57Z"/>
          <circle class="cls-2" cx="129.73" cy="494.28" r="3.57"/>
          <path class="cls-2" d="M161.17,494.28c0,1.97-1.6,3.57-3.57,3.57s-3.57-1.6-3.57-3.57,1.6-3.57,3.57-3.57,3.57,1.6,3.57,3.57Z"/>
          <path class="cls-2" d="M105.43,470.07c0,1.97-1.6,3.57-3.57,3.57s-3.57-1.6-3.57-3.57,1.6-3.57,3.57-3.57,3.57,1.6,3.57,3.57Z"/>
          <path class="cls-2" d="M133.3,470.07c0,1.97-1.6,3.57-3.57,3.57s-3.57-1.6-3.57-3.57,1.6-3.57,3.57-3.57,3.57,1.6,3.57,3.57Z"/>
          <path class="cls-2" d="M77.56,445.85c0,1.97-1.6,3.57-3.57,3.57s-3.57-1.6-3.57-3.57,1.6-3.57,3.57-3.57,3.57,1.6,3.57,3.57Z"/>
          <path class="cls-2" d="M105.43,445.85c0,1.97-1.6,3.57-3.57,3.57s-3.57-1.6-3.57-3.57,1.6-3.57,3.57-3.57,3.57,1.6,3.57,3.57Z"/>
          <path class="cls-2" d="M133.3,445.85c0,1.97-1.6,3.57-3.57,3.57s-3.57-1.6-3.57-3.57,1.6-3.57,3.57-3.57,3.57,1.6,3.57,3.57Z"/>
          <path class="cls-2" d="M49.69,421.63c0,1.97-1.6,3.57-3.57,3.57s-3.57-1.6-3.57-3.57,1.6-3.57,3.57-3.57,3.57,1.6,3.57,3.57Z"/>
          <path class="cls-2" d="M77.56,421.63c0,1.97-1.6,3.57-3.57,3.57s-3.57-1.6-3.57-3.57,1.6-3.57,3.57-3.57,3.57,1.6,3.57,3.57Z"/>
          <path class="cls-2" d="M105.43,421.63c0,1.97-1.6,3.57-3.57,3.57s-3.57-1.6-3.57-3.57,1.6-3.57,3.57-3.57,3.57,1.6,3.57,3.57Z"/>
          <path class="cls-2" d="M21.82,397.42c0,1.97-1.6,3.57-3.57,3.57s-3.57-1.6-3.57-3.57,1.6-3.57,3.57-3.57,3.57,1.6,3.57,3.57Z"/>
          <path class="cls-2" d="M49.69,397.42c0,1.97-1.6,3.57-3.57,3.57s-3.57-1.6-3.57-3.57,1.6-3.57,3.57-3.57,3.57,1.6,3.57,3.57Z"/>
          <path class="cls-2" d="M77.56,397.42c0,1.97-1.6,3.57-3.57,3.57s-3.57-1.6-3.57-3.57,1.6-3.57,3.57-3.57,3.57,1.6,3.57,3.57Z"/>
          <path class="cls-2" d="M105.43,397.42c0,1.97-1.6,3.57-3.57,3.57s-3.57-1.6-3.57-3.57,1.6-3.57,3.57-3.57,3.57,1.6,3.57,3.57Z"/>
          <path class="cls-2" d="M21.82,373.2c0,1.97-1.6,3.57-3.57,3.57s-3.57-1.6-3.57-3.57,1.6-3.57,3.57-3.57,3.57,1.6,3.57,3.57Z"/>
          <path class="cls-2" d="M49.69,373.2c0,1.97-1.6,3.57-3.57,3.57s-3.57-1.6-3.57-3.57,1.6-3.57,3.57-3.57,3.57,1.6,3.57,3.57Z"/>
          <path class="cls-2" d="M77.56,373.2c0,1.97-1.6,3.57-3.57,3.57s-3.57-1.6-3.57-3.57,1.6-3.57,3.57-3.57,3.57,1.6,3.57,3.57Z"/>
          <path class="cls-2" d="M21.82,348.98c0,1.97-1.6,3.57-3.57,3.57s-3.57-1.6-3.57-3.57,1.6-3.57,3.57-3.57,3.57,1.6,3.57,3.57Z"/>
          <path class="cls-2" d="M49.69,348.98c0,1.97-1.6,3.57-3.57,3.57s-3.57-1.6-3.57-3.57,1.6-3.57,3.57-3.57,3.57,1.6,3.57,3.57Z"/>
          <path class="cls-2" d="M77.56,348.98c0,1.97-1.6,3.57-3.57,3.57s-3.57-1.6-3.57-3.57,1.6-3.57,3.57-3.57,3.57,1.6,3.57,3.57Z"/>
          <path class="cls-2" d="M21.82,324.76c0,1.97-1.6,3.57-3.57,3.57s-3.57-1.6-3.57-3.57,1.6-3.57,3.57-3.57,3.57,1.6,3.57,3.57Z"/>
          <path class="cls-2" d="M49.69,324.76c0,1.97-1.6,3.57-3.57,3.57s-3.57-1.6-3.57-3.57,1.6-3.57,3.57-3.57,3.57,1.6,3.57,3.57Z"/>
          <path class="cls-2" d="M21.82,300.55c0,1.97-1.6,3.57-3.57,3.57s-3.57-1.6-3.57-3.57,1.6-3.57,3.57-3.57,3.57,1.6,3.57,3.57Z"/>
          <path class="cls-2" d="M49.69,300.55c0,1.97-1.6,3.57-3.57,3.57s-3.57-1.6-3.57-3.57,1.6-3.57,3.57-3.57,3.57,1.6,3.57,3.57Z"/>
          <path class="cls-2" d="M21.82,276.33c0,1.97-1.6,3.57-3.57,3.57s-3.57-1.6-3.57-3.57,1.6-3.57,3.57-3.57,3.57,1.6,3.57,3.57Z"/>
          <path class="cls-2" d="M21.82,252.11c0,1.97-1.6,3.57-3.57,3.57s-3.57-1.6-3.57-3.57,1.6-3.57,3.57-3.57,3.57,1.6,3.57,3.57Z"/>
        </g>
        <g>
          <path class="cls-2" d="M244.82,494.31c0,1.97-1.6,3.57-3.57,3.57s-3.57-1.6-3.57-3.57,1.6-3.57,3.57-3.57,3.57,1.6,3.57,3.57Z"/>
          <circle class="cls-2" cx="269.12" cy="494.31" r="3.57"/>
          <path class="cls-2" d="M300.56,494.31c0,1.97-1.6,3.57-3.57,3.57s-3.57-1.6-3.57-3.57,1.6-3.57,3.57-3.57,3.57,1.6,3.57,3.57Z"/>
          <path class="cls-2" d="M244.82,470.09c0,1.97-1.6,3.57-3.57,3.57s-3.57-1.6-3.57-3.57,1.6-3.57,3.57-3.57,3.57,1.6,3.57,3.57Z"/>
          <path class="cls-2" d="M272.69,470.09c0,1.97-1.6,3.57-3.57,3.57s-3.57-1.6-3.57-3.57,1.6-3.57,3.57-3.57,3.57,1.6,3.57,3.57Z"/>
          <path class="cls-2" d="M216.94,445.88c0,1.97-1.6,3.57-3.57,3.57s-3.57-1.6-3.57-3.57,1.6-3.57,3.57-3.57,3.57,1.6,3.57,3.57Z"/>
          <path class="cls-2" d="M244.82,445.88c0,1.97-1.6,3.57-3.57,3.57s-3.57-1.6-3.57-3.57,1.6-3.57,3.57-3.57,3.57,1.6,3.57,3.57Z"/>
          <path class="cls-2" d="M272.69,445.88c0,1.97-1.6,3.57-3.57,3.57s-3.57-1.6-3.57-3.57,1.6-3.57,3.57-3.57,3.57,1.6,3.57,3.57Z"/>
          <path class="cls-2" d="M189.07,421.66c0,1.97-1.6,3.57-3.57,3.57s-3.57-1.6-3.57-3.57,1.6-3.57,3.57-3.57,3.57,1.6,3.57,3.57Z"/>
          <path class="cls-2" d="M216.94,421.66c0,1.97-1.6,3.57-3.57,3.57s-3.57-1.6-3.57-3.57,1.6-3.57,3.57-3.57,3.57,1.6,3.57,3.57Z"/>
          <path class="cls-2" d="M244.82,421.66c0,1.97-1.6,3.57-3.57,3.57s-3.57-1.6-3.57-3.57,1.6-3.57,3.57-3.57,3.57,1.6,3.57,3.57Z"/>
          <path class="cls-2" d="M161.2,397.44c0,1.97-1.6,3.57-3.57,3.57s-3.57-1.6-3.57-3.57,1.6-3.57,3.57-3.57,3.57,1.6,3.57,3.57Z"/>
          <path class="cls-2" d="M189.07,397.44c0,1.97-1.6,3.57-3.57,3.57s-3.57-1.6-3.57-3.57,1.6-3.57,3.57-3.57,3.57,1.6,3.57,3.57Z"/>
          <path class="cls-2" d="M216.94,397.44c0,1.97-1.6,3.57-3.57,3.57s-3.57-1.6-3.57-3.57,1.6-3.57,3.57-3.57,3.57,1.6,3.57,3.57Z"/>
          <path class="cls-2" d="M244.82,397.44c0,1.97-1.6,3.57-3.57,3.57s-3.57-1.6-3.57-3.57,1.6-3.57,3.57-3.57,3.57,1.6,3.57,3.57Z"/>
          <path class="cls-2" d="M133.33,373.23c0,1.97-1.6,3.57-3.57,3.57s-3.57-1.6-3.57-3.57,1.6-3.57,3.57-3.57,3.57,1.6,3.57,3.57Z"/>
          <path class="cls-2" d="M161.2,373.23c0,1.97-1.6,3.57-3.57,3.57s-3.57-1.6-3.57-3.57,1.6-3.57,3.57-3.57,3.57,1.6,3.57,3.57Z"/>
          <path class="cls-2" d="M189.07,373.23c0,1.97-1.6,3.57-3.57,3.57s-3.57-1.6-3.57-3.57,1.6-3.57,3.57-3.57,3.57,1.6,3.57,3.57Z"/>
          <path class="cls-2" d="M216.94,373.23c0,1.97-1.6,3.57-3.57,3.57s-3.57-1.6-3.57-3.57,1.6-3.57,3.57-3.57,3.57,1.6,3.57,3.57Z"/>
          <path class="cls-2" d="M105.46,349.01c0,1.97-1.6,3.57-3.57,3.57s-3.57-1.6-3.57-3.57,1.6-3.57,3.57-3.57,3.57,1.6,3.57,3.57Z"/>
          <path class="cls-2" d="M133.33,349.01c0,1.97-1.6,3.57-3.57,3.57s-3.57-1.6-3.57-3.57,1.6-3.57,3.57-3.57,3.57,1.6,3.57,3.57Z"/>
          <path class="cls-2" d="M161.2,349.01c0,1.97-1.6,3.57-3.57,3.57s-3.57-1.6-3.57-3.57,1.6-3.57,3.57-3.57,3.57,1.6,3.57,3.57Z"/>
          <path class="cls-2" d="M189.07,349.01c0,1.97-1.6,3.57-3.57,3.57s-3.57-1.6-3.57-3.57,1.6-3.57,3.57-3.57,3.57,1.6,3.57,3.57Z"/>
          <path class="cls-2" d="M216.94,349.01c0,1.97-1.6,3.57-3.57,3.57s-3.57-1.6-3.57-3.57,1.6-3.57,3.57-3.57,3.57,1.6,3.57,3.57Z"/>
          <path class="cls-2" d="M133.33,324.79c0,1.97-1.6,3.57-3.57,3.57s-3.57-1.6-3.57-3.57,1.6-3.57,3.57-3.57,3.57,1.6,3.57,3.57Z"/>
          <path class="cls-2" d="M161.2,324.79c0,1.97-1.6,3.57-3.57,3.57s-3.57-1.6-3.57-3.57,1.6-3.57,3.57-3.57,3.57,1.6,3.57,3.57Z"/>
          <path class="cls-2" d="M189.07,324.79c0,1.97-1.6,3.57-3.57,3.57s-3.57-1.6-3.57-3.57,1.6-3.57,3.57-3.57,3.57,1.6,3.57,3.57Z"/>
          <path class="cls-2" d="M133.33,300.57c0,1.97-1.6,3.57-3.57,3.57s-3.57-1.6-3.57-3.57,1.6-3.57,3.57-3.57,3.57,1.6,3.57,3.57Z"/>
          <path class="cls-2" d="M161.2,300.57c0,1.97-1.6,3.57-3.57,3.57s-3.57-1.6-3.57-3.57,1.6-3.57,3.57-3.57,3.57,1.6,3.57,3.57Z"/>
          <path class="cls-2" d="M189.07,300.57c0,1.97-1.6,3.57-3.57,3.57s-3.57-1.6-3.57-3.57,1.6-3.57,3.57-3.57,3.57,1.6,3.57,3.57Z"/>
          <path class="cls-2" d="M161.2,276.36c0,1.97-1.6,3.57-3.57,3.57s-3.57-1.6-3.57-3.57,1.6-3.57,3.57-3.57,3.57,1.6,3.57,3.57Z"/>
          <path class="cls-2" d="M161.2,252.14c0,1.97-1.6,3.57-3.57,3.57s-3.57-1.6-3.57-3.57,1.6-3.57,3.57-3.57,3.57,1.6,3.57,3.57Z"/>
        </g>
      </g>
    </g>
    <g class="cls-3">
      <g>
        <g>
          <path class="cls-2" d="M1381.71,611.69c0,1.97-1.6,3.57-3.57,3.57s-3.57-1.6-3.57-3.57,1.6-3.57,3.57-3.57,3.57,1.6,3.57,3.57Z"/>
          <circle class="cls-2" cx="1406.01" cy="611.69" r="3.57"/>
          <path class="cls-2" d="M1437.45,611.69c0,1.97-1.6,3.57-3.57,3.57s-3.57-1.6-3.57-3.57,1.6-3.57,3.57-3.57,3.57,1.6,3.57,3.57Z"/>
          <path class="cls-2" d="M1381.71,587.47c0,1.97-1.6,3.57-3.57,3.57s-3.57-1.6-3.57-3.57,1.6-3.57,3.57-3.57,3.57,1.6,3.57,3.57Z"/>
          <path class="cls-2" d="M1409.58,587.47c0,1.97-1.6,3.57-3.57,3.57s-3.57-1.6-3.57-3.57,1.6-3.57,3.57-3.57,3.57,1.6,3.57,3.57Z"/>
          <path class="cls-2" d="M1353.84,563.25c0,1.97-1.6,3.57-3.57,3.57s-3.57-1.6-3.57-3.57,1.6-3.57,3.57-3.57,3.57,1.6,3.57,3.57Z"/>
          <path class="cls-2" d="M1381.71,563.25c0,1.97-1.6,3.57-3.57,3.57s-3.57-1.6-3.57-3.57,1.6-3.57,3.57-3.57,3.57,1.6,3.57,3.57Z"/>
          <path class="cls-2" d="M1409.58,563.25c0,1.97-1.6,3.57-3.57,3.57s-3.57-1.6-3.57-3.57,1.6-3.57,3.57-3.57,3.57,1.6,3.57,3.57Z"/>
          <path class="cls-2" d="M1325.97,539.04c0,1.97-1.6,3.57-3.57,3.57s-3.57-1.6-3.57-3.57,1.6-3.57,3.57-3.57,3.57,1.6,3.57,3.57Z"/>
          <path class="cls-2" d="M1353.84,539.04c0,1.97-1.6,3.57-3.57,3.57s-3.57-1.6-3.57-3.57,1.6-3.57,3.57-3.57,3.57,1.6,3.57,3.57Z"/>
          <path class="cls-2" d="M1381.71,539.04c0,1.97-1.6,3.57-3.57,3.57s-3.57-1.6-3.57-3.57,1.6-3.57,3.57-3.57,3.57,1.6,3.57,3.57Z"/>
          <path class="cls-2" d="M1298.1,514.82c0,1.97-1.6,3.57-3.57,3.57s-3.57-1.6-3.57-3.57,1.6-3.57,3.57-3.57,3.57,1.6,3.57,3.57Z"/>
          <path class="cls-2" d="M1325.97,514.82c0,1.97-1.6,3.57-3.57,3.57s-3.57-1.6-3.57-3.57,1.6-3.57,3.57-3.57,3.57,1.6,3.57,3.57Z"/>
          <path class="cls-2" d="M1353.84,514.82c0,1.97-1.6,3.57-3.57,3.57s-3.57-1.6-3.57-3.57,1.6-3.57,3.57-3.57,3.57,1.6,3.57,3.57Z"/>
          <path class="cls-2" d="M1381.71,514.82c0,1.97-1.6,3.57-3.57,3.57s-3.57-1.6-3.57-3.57,1.6-3.57,3.57-3.57,3.57,1.6,3.57,3.57Z"/>
          <path class="cls-2" d="M1270.22,490.6c0,1.97-1.6,3.57-3.57,3.57s-3.57-1.6-3.57-3.57,1.6-3.57,3.57-3.57,3.57,1.6,3.57,3.57Z"/>
          <path class="cls-2" d="M1298.1,490.6c0,1.97-1.6,3.57-3.57,3.57s-3.57-1.6-3.57-3.57,1.6-3.57,3.57-3.57,3.57,1.6,3.57,3.57Z"/>
          <path class="cls-2" d="M1325.97,490.6c0,1.97-1.6,3.57-3.57,3.57s-3.57-1.6-3.57-3.57,1.6-3.57,3.57-3.57,3.57,1.6,3.57,3.57Z"/>
          <path class="cls-2" d="M1353.84,490.6c0,1.97-1.6,3.57-3.57,3.57s-3.57-1.6-3.57-3.57,1.6-3.57,3.57-3.57,3.57,1.6,3.57,3.57Z"/>
          <path class="cls-2" d="M1242.35,466.38c0,1.97-1.6,3.57-3.57,3.57s-3.57-1.6-3.57-3.57,1.6-3.57,3.57-3.57,3.57,1.6,3.57,3.57Z"/>
          <path class="cls-2" d="M1270.22,466.38c0,1.97-1.6,3.57-3.57,3.57s-3.57-1.6-3.57-3.57,1.6-3.57,3.57-3.57,3.57,1.6,3.57,3.57Z"/>
          <path class="cls-2" d="M1298.1,466.38c0,1.97-1.6,3.57-3.57,3.57s-3.57-1.6-3.57-3.57,1.6-3.57,3.57-3.57,3.57,1.6,3.57,3.57Z"/>
          <path class="cls-2" d="M1325.97,466.38c0,1.97-1.6,3.57-3.57,3.57s-3.57-1.6-3.57-3.57,1.6-3.57,3.57-3.57,3.57,1.6,3.57,3.57Z"/>
          <path class="cls-2" d="M1353.84,466.38c0,1.97-1.6,3.57-3.57,3.57s-3.57-1.6-3.57-3.57,1.6-3.57,3.57-3.57,3.57,1.6,3.57,3.57Z"/>
          <path class="cls-2" d="M1270.22,442.17c0,1.97-1.6,3.57-3.57,3.57s-3.57-1.6-3.57-3.57,1.6-3.57,3.57-3.57,3.57,1.6,3.57,3.57Z"/>
          <path class="cls-2" d="M1298.1,442.17c0,1.97-1.6,3.57-3.57,3.57s-3.57-1.6-3.57-3.57,1.6-3.57,3.57-3.57,3.57,1.6,3.57,3.57Z"/>
          <path class="cls-2" d="M1325.97,442.17c0,1.97-1.6,3.57-3.57,3.57s-3.57-1.6-3.57-3.57,1.6-3.57,3.57-3.57,3.57,1.6,3.57,3.57Z"/>
          <path class="cls-2" d="M1270.22,417.95c0,1.97-1.6,3.57-3.57,3.57s-3.57-1.6-3.57-3.57,1.6-3.57,3.57-3.57,3.57,1.6,3.57,3.57Z"/>
          <path class="cls-2" d="M1298.1,417.95c0,1.97-1.6,3.57-3.57,3.57s-3.57-1.6-3.57-3.57,1.6-3.57,3.57-3.57,3.57,1.6,3.57,3.57Z"/>
          <path class="cls-2" d="M1325.97,417.95c0,1.97-1.6,3.57-3.57,3.57s-3.57-1.6-3.57-3.57,1.6-3.57,3.57-3.57,3.57,1.6,3.57,3.57Z"/>
          <path class="cls-2" d="M1298.1,393.73c0,1.97-1.6,3.57-3.57,3.57s-3.57-1.6-3.57-3.57,1.6-3.57,3.57-3.57,3.57,1.6,3.57,3.57Z"/>
          <path class="cls-2" d="M1298.1,369.52c0,1.97-1.6,3.57-3.57,3.57s-3.57-1.6-3.57-3.57,1.6-3.57,3.57-3.57,3.57,1.6,3.57,3.57Z"/>
        </g>
        <g>
          <path class="cls-2" d="M1381.71,490.69c0,1.97-1.6,3.57-3.57,3.57s-3.57-1.6-3.57-3.57,1.6-3.57,3.57-3.57,3.57,1.6,3.57,3.57Z"/>
          <circle class="cls-2" cx="1406.01" cy="490.69" r="3.57"/>
          <path class="cls-2" d="M1437.45,490.69c0,1.97-1.6,3.57-3.57,3.57s-3.57-1.6-3.57-3.57,1.6-3.57,3.57-3.57,3.57,1.6,3.57,3.57Z"/>
          <path class="cls-2" d="M1381.71,466.47c0,1.97-1.6,3.57-3.57,3.57s-3.57-1.6-3.57-3.57,1.6-3.57,3.57-3.57,3.57,1.6,3.57,3.57Z"/>
          <path class="cls-2" d="M1409.58,466.47c0,1.97-1.6,3.57-3.57,3.57s-3.57-1.6-3.57-3.57,1.6-3.57,3.57-3.57,3.57,1.6,3.57,3.57Z"/>
          <path class="cls-2" d="M1353.84,442.25c0,1.97-1.6,3.57-3.57,3.57s-3.57-1.6-3.57-3.57,1.6-3.57,3.57-3.57,3.57,1.6,3.57,3.57Z"/>
          <path class="cls-2" d="M1381.71,442.25c0,1.97-1.6,3.57-3.57,3.57s-3.57-1.6-3.57-3.57,1.6-3.57,3.57-3.57,3.57,1.6,3.57,3.57Z"/>
          <path class="cls-2" d="M1409.58,442.25c0,1.97-1.6,3.57-3.57,3.57s-3.57-1.6-3.57-3.57,1.6-3.57,3.57-3.57,3.57,1.6,3.57,3.57Z"/>
          <path class="cls-2" d="M1325.97,418.04c0,1.97-1.6,3.57-3.57,3.57s-3.57-1.6-3.57-3.57,1.6-3.57,3.57-3.57,3.57,1.6,3.57,3.57Z"/>
          <path class="cls-2" d="M1353.84,418.04c0,1.97-1.6,3.57-3.57,3.57s-3.57-1.6-3.57-3.57,1.6-3.57,3.57-3.57,3.57,1.6,3.57,3.57Z"/>
          <path class="cls-2" d="M1381.71,418.04c0,1.97-1.6,3.57-3.57,3.57s-3.57-1.6-3.57-3.57,1.6-3.57,3.57-3.57,3.57,1.6,3.57,3.57Z"/>
          <path class="cls-2" d="M1298.1,393.82c0,1.97-1.6,3.57-3.57,3.57s-3.57-1.6-3.57-3.57,1.6-3.57,3.57-3.57,3.57,1.6,3.57,3.57Z"/>
          <path class="cls-2" d="M1325.97,393.82c0,1.97-1.6,3.57-3.57,3.57s-3.57-1.6-3.57-3.57,1.6-3.57,3.57-3.57,3.57,1.6,3.57,3.57Z"/>
          <path class="cls-2" d="M1353.84,393.82c0,1.97-1.6,3.57-3.57,3.57s-3.57-1.6-3.57-3.57,1.6-3.57,3.57-3.57,3.57,1.6,3.57,3.57Z"/>
          <path class="cls-2" d="M1381.71,393.82c0,1.97-1.6,3.57-3.57,3.57s-3.57-1.6-3.57-3.57,1.6-3.57,3.57-3.57,3.57,1.6,3.57,3.57Z"/>
          <path class="cls-2" d="M1270.22,369.6c0,1.97-1.6,3.57-3.57,3.57s-3.57-1.6-3.57-3.57,1.6-3.57,3.57-3.57,3.57,1.6,3.57,3.57Z"/>
          <path class="cls-2" d="M1298.1,369.6c0,1.97-1.6,3.57-3.57,3.57s-3.57-1.6-3.57-3.57,1.6-3.57,3.57-3.57,3.57,1.6,3.57,3.57Z"/>
          <path class="cls-2" d="M1325.97,369.6c0,1.97-1.6,3.57-3.57,3.57s-3.57-1.6-3.57-3.57,1.6-3.57,3.57-3.57,3.57,1.6,3.57,3.57Z"/>
          <path class="cls-2" d="M1353.84,369.6c0,1.97-1.6,3.57-3.57,3.57s-3.57-1.6-3.57-3.57,1.6-3.57,3.57-3.57,3.57,1.6,3.57,3.57Z"/>
          <path class="cls-2" d="M1242.35,345.39c0,1.97-1.6,3.57-3.57,3.57s-3.57-1.6-3.57-3.57,1.6-3.57,3.57-3.57,3.57,1.6,3.57,3.57Z"/>
          <path class="cls-2" d="M1270.22,345.39c0,1.97-1.6,3.57-3.57,3.57s-3.57-1.6-3.57-3.57,1.6-3.57,3.57-3.57,3.57,1.6,3.57,3.57Z"/>
          <path class="cls-2" d="M1298.1,345.39c0,1.97-1.6,3.57-3.57,3.57s-3.57-1.6-3.57-3.57,1.6-3.57,3.57-3.57,3.57,1.6,3.57,3.57Z"/>
          <path class="cls-2" d="M1325.97,345.39c0,1.97-1.6,3.57-3.57,3.57s-3.57-1.6-3.57-3.57,1.6-3.57,3.57-3.57,3.57,1.6,3.57,3.57Z"/>
          <path class="cls-2" d="M1353.84,345.39c0,1.97-1.6,3.57-3.57,3.57s-3.57-1.6-3.57-3.57,1.6-3.57,3.57-3.57,3.57,1.6,3.57,3.57Z"/>
          <path class="cls-2" d="M1270.22,321.17c0,1.97-1.6,3.57-3.57,3.57s-3.57-1.6-3.57-3.57,1.6-3.57,3.57-3.57,3.57,1.6,3.57,3.57Z"/>
          <path class="cls-2" d="M1298.1,321.17c0,1.97-1.6,3.57-3.57,3.57s-3.57-1.6-3.57-3.57,1.6-3.57,3.57-3.57,3.57,1.6,3.57,3.57Z"/>
          <path class="cls-2" d="M1325.97,321.17c0,1.97-1.6,3.57-3.57,3.57s-3.57-1.6-3.57-3.57,1.6-3.57,3.57-3.57,3.57,1.6,3.57,3.57Z"/>
          <path class="cls-2" d="M1270.22,296.95c0,1.97-1.6,3.57-3.57,3.57s-3.57-1.6-3.57-3.57,1.6-3.57,3.57-3.57,3.57,1.6,3.57,3.57Z"/>
          <path class="cls-2" d="M1298.1,296.95c0,1.97-1.6,3.57-3.57,3.57s-3.57-1.6-3.57-3.57,1.6-3.57,3.57-3.57,3.57,1.6,3.57,3.57Z"/>
          <path class="cls-2" d="M1325.97,296.95c0,1.97-1.6,3.57-3.57,3.57s-3.57-1.6-3.57-3.57,1.6-3.57,3.57-3.57,3.57,1.6,3.57,3.57Z"/>
          <path class="cls-2" d="M1298.1,272.73c0,1.97-1.6,3.57-3.57,3.57s-3.57-1.6-3.57-3.57,1.6-3.57,3.57-3.57,3.57,1.6,3.57,3.57Z"/>
          <path class="cls-2" d="M1298.1,248.52c0,1.97-1.6,3.57-3.57,3.57s-3.57-1.6-3.57-3.57,1.6-3.57,3.57-3.57,3.57,1.6,3.57,3.57Z"/>
        </g>
        <g>
          <path class="cls-2" d="M1493.22,442.28c0,1.97-1.6,3.57-3.57,3.57s-3.57-1.6-3.57-3.57,1.6-3.57,3.57-3.57,3.57,1.6,3.57,3.57Z"/>
          <path class="cls-2" d="M1465.35,418.06c0,1.97-1.6,3.57-3.57,3.57s-3.57-1.6-3.57-3.57,1.6-3.57,3.57-3.57,3.57,1.6,3.57,3.57Z"/>
          <path class="cls-2" d="M1493.22,418.06c0,1.97-1.6,3.57-3.57,3.57s-3.57-1.6-3.57-3.57,1.6-3.57,3.57-3.57,3.57,1.6,3.57,3.57Z"/>
          <path class="cls-2" d="M1437.48,393.85c0,1.97-1.6,3.57-3.57,3.57s-3.57-1.6-3.57-3.57,1.6-3.57,3.57-3.57,3.57,1.6,3.57,3.57Z"/>
          <path class="cls-2" d="M1465.35,393.85c0,1.97-1.6,3.57-3.57,3.57s-3.57-1.6-3.57-3.57,1.6-3.57,3.57-3.57,3.57,1.6,3.57,3.57Z"/>
          <path class="cls-2" d="M1493.22,393.85c0,1.97-1.6,3.57-3.57,3.57s-3.57-1.6-3.57-3.57,1.6-3.57,3.57-3.57,3.57,1.6,3.57,3.57Z"/>
          <path class="cls-2" d="M1409.61,369.63c0,1.97-1.6,3.57-3.57,3.57s-3.57-1.6-3.57-3.57,1.6-3.57,3.57-3.57,3.57,1.6,3.57,3.57Z"/>
          <path class="cls-2" d="M1437.48,369.63c0,1.97-1.6,3.57-3.57,3.57s-3.57-1.6-3.57-3.57,1.6-3.57,3.57-3.57,3.57,1.6,3.57,3.57Z"/>
          <path class="cls-2" d="M1465.35,369.63c0,1.97-1.6,3.57-3.57,3.57s-3.57-1.6-3.57-3.57,1.6-3.57,3.57-3.57,3.57,1.6,3.57,3.57Z"/>
          <path class="cls-2" d="M1493.22,369.63c0,1.97-1.6,3.57-3.57,3.57s-3.57-1.6-3.57-3.57,1.6-3.57,3.57-3.57,3.57,1.6,3.57,3.57Z"/>
          <path class="cls-2" d="M1381.74,345.41c0,1.97-1.6,3.57-3.57,3.57s-3.57-1.6-3.57-3.57,1.6-3.57,3.57-3.57,3.57,1.6,3.57,3.57Z"/>
          <path class="cls-2" d="M1409.61,345.41c0,1.97-1.6,3.57-3.57,3.57s-3.57-1.6-3.57-3.57,1.6-3.57,3.57-3.57,3.57,1.6,3.57,3.57Z"/>
          <path class="cls-2" d="M1437.48,345.41c0,1.97-1.6,3.57-3.57,3.57s-3.57-1.6-3.57-3.57,1.6-3.57,3.57-3.57,3.57,1.6,3.57,3.57Z"/>
          <path class="cls-2" d="M1465.35,345.41c0,1.97-1.6,3.57-3.57,3.57s-3.57-1.6-3.57-3.57,1.6-3.57,3.57-3.57,3.57,1.6,3.57,3.57Z"/>
          <path class="cls-2" d="M1493.22,345.41c0,1.97-1.6,3.57-3.57,3.57s-3.57-1.6-3.57-3.57,1.6-3.57,3.57-3.57,3.57,1.6,3.57,3.57Z"/>
          <path class="cls-2" d="M1409.61,321.2c0,1.97-1.6,3.57-3.57,3.57s-3.57-1.6-3.57-3.57,1.6-3.57,3.57-3.57,3.57,1.6,3.57,3.57Z"/>
          <path class="cls-2" d="M1437.48,321.2c0,1.97-1.6,3.57-3.57,3.57s-3.57-1.6-3.57-3.57,1.6-3.57,3.57-3.57,3.57,1.6,3.57,3.57Z"/>
          <path class="cls-2" d="M1465.35,321.2c0,1.97-1.6,3.57-3.57,3.57s-3.57-1.6-3.57-3.57,1.6-3.57,3.57-3.57,3.57,1.6,3.57,3.57Z"/>
          <path class="cls-2" d="M1409.61,296.98c0,1.97-1.6,3.57-3.57,3.57s-3.57-1.6-3.57-3.57,1.6-3.57,3.57-3.57,3.57,1.6,3.57,3.57Z"/>
          <path class="cls-2" d="M1437.48,296.98c0,1.97-1.6,3.57-3.57,3.57s-3.57-1.6-3.57-3.57,1.6-3.57,3.57-3.57,3.57,1.6,3.57,3.57Z"/>
          <path class="cls-2" d="M1465.35,296.98c0,1.97-1.6,3.57-3.57,3.57s-3.57-1.6-3.57-3.57,1.6-3.57,3.57-3.57,3.57,1.6,3.57,3.57Z"/>
          <path class="cls-2" d="M1437.48,272.76c0,1.97-1.6,3.57-3.57,3.57s-3.57-1.6-3.57-3.57,1.6-3.57,3.57-3.57,3.57,1.6,3.57,3.57Z"/>
          <path class="cls-2" d="M1437.48,248.54c0,1.97-1.6,3.57-3.57,3.57s-3.57-1.6-3.57-3.57,1.6-3.57,3.57-3.57,3.57,1.6,3.57,3.57Z"/>
        </g>
      </g>
      <path class="cls-6" d="M1314.59,398.17l-38.84,49.19-104.4-56.47,112.76-166.07,61.36,39.69-78.8,102.68,47.91,30.99Z"/>
    </g>
    <g class="cls-4">
      <g>
        <g>
          <path class="cls-2" d="M482.16,482.25c0,1.97-1.6,3.57-3.57,3.57s-3.57-1.6-3.57-3.57,1.6-3.57,3.57-3.57,3.57,1.6,3.57,3.57Z"/>
          <circle class="cls-2" cx="506.46" cy="482.25" r="3.57"/>
          <path class="cls-2" d="M537.9,482.25c0,1.97-1.6,3.57-3.57,3.57s-3.57-1.6-3.57-3.57,1.6-3.57,3.57-3.57,3.57,1.6,3.57,3.57Z"/>
          <path class="cls-2" d="M482.16,458.03c0,1.97-1.6,3.57-3.57,3.57s-3.57-1.6-3.57-3.57,1.6-3.57,3.57-3.57,3.57,1.6,3.57,3.57Z"/>
          <path class="cls-2" d="M510.03,458.03c0,1.97-1.6,3.57-3.57,3.57s-3.57-1.6-3.57-3.57,1.6-3.57,3.57-3.57,3.57,1.6,3.57,3.57Z"/>
          <path class="cls-2" d="M454.29,433.81c0,1.97-1.6,3.57-3.57,3.57s-3.57-1.6-3.57-3.57,1.6-3.57,3.57-3.57,3.57,1.6,3.57,3.57Z"/>
          <path class="cls-2" d="M482.16,433.81c0,1.97-1.6,3.57-3.57,3.57s-3.57-1.6-3.57-3.57,1.6-3.57,3.57-3.57,3.57,1.6,3.57,3.57Z"/>
          <path class="cls-2" d="M510.03,433.81c0,1.97-1.6,3.57-3.57,3.57s-3.57-1.6-3.57-3.57,1.6-3.57,3.57-3.57,3.57,1.6,3.57,3.57Z"/>
          <path class="cls-2" d="M426.42,409.6c0,1.97-1.6,3.57-3.57,3.57s-3.57-1.6-3.57-3.57,1.6-3.57,3.57-3.57,3.57,1.6,3.57,3.57Z"/>
          <path class="cls-2" d="M454.29,409.6c0,1.97-1.6,3.57-3.57,3.57s-3.57-1.6-3.57-3.57,1.6-3.57,3.57-3.57,3.57,1.6,3.57,3.57Z"/>
          <path class="cls-2" d="M482.16,409.6c0,1.97-1.6,3.57-3.57,3.57s-3.57-1.6-3.57-3.57,1.6-3.57,3.57-3.57,3.57,1.6,3.57,3.57Z"/>
          <path class="cls-2" d="M398.55,385.38c0,1.97-1.6,3.57-3.57,3.57s-3.57-1.6-3.57-3.57,1.6-3.57,3.57-3.57,3.57,1.6,3.57,3.57Z"/>
          <path class="cls-2" d="M426.42,385.38c0,1.97-1.6,3.57-3.57,3.57s-3.57-1.6-3.57-3.57,1.6-3.57,3.57-3.57,3.57,1.6,3.57,3.57Z"/>
          <path class="cls-2" d="M454.29,385.38c0,1.97-1.6,3.57-3.57,3.57s-3.57-1.6-3.57-3.57,1.6-3.57,3.57-3.57,3.57,1.6,3.57,3.57Z"/>
          <path class="cls-2" d="M482.16,385.38c0,1.97-1.6,3.57-3.57,3.57s-3.57-1.6-3.57-3.57,1.6-3.57,3.57-3.57,3.57,1.6,3.57,3.57Z"/>
          <path class="cls-2" d="M370.68,361.16c0,1.97-1.6,3.57-3.57,3.57s-3.57-1.6-3.57-3.57,1.6-3.57,3.57-3.57,3.57,1.6,3.57,3.57Z"/>
          <path class="cls-2" d="M398.55,361.16c0,1.97-1.6,3.57-3.57,3.57s-3.57-1.6-3.57-3.57,1.6-3.57,3.57-3.57,3.57,1.6,3.57,3.57Z"/>
          <path class="cls-2" d="M426.42,361.16c0,1.97-1.6,3.57-3.57,3.57s-3.57-1.6-3.57-3.57,1.6-3.57,3.57-3.57,3.57,1.6,3.57,3.57Z"/>
          <path class="cls-2" d="M454.29,361.16c0,1.97-1.6,3.57-3.57,3.57s-3.57-1.6-3.57-3.57,1.6-3.57,3.57-3.57,3.57,1.6,3.57,3.57Z"/>
          <path class="cls-2" d="M342.8,336.94c0,1.97-1.6,3.57-3.57,3.57s-3.57-1.6-3.57-3.57,1.6-3.57,3.57-3.57,3.57,1.6,3.57,3.57Z"/>
          <path class="cls-2" d="M370.68,336.94c0,1.97-1.6,3.57-3.57,3.57s-3.57-1.6-3.57-3.57,1.6-3.57,3.57-3.57,3.57,1.6,3.57,3.57Z"/>
          <path class="cls-2" d="M398.55,336.94c0,1.97-1.6,3.57-3.57,3.57s-3.57-1.6-3.57-3.57,1.6-3.57,3.57-3.57,3.57,1.6,3.57,3.57Z"/>
          <path class="cls-2" d="M426.42,336.94c0,1.97-1.6,3.57-3.57,3.57s-3.57-1.6-3.57-3.57,1.6-3.57,3.57-3.57,3.57,1.6,3.57,3.57Z"/>
          <path class="cls-2" d="M454.29,336.94c0,1.97-1.6,3.57-3.57,3.57s-3.57-1.6-3.57-3.57,1.6-3.57,3.57-3.57,3.57,1.6,3.57,3.57Z"/>
          <path class="cls-2" d="M370.68,312.73c0,1.97-1.6,3.57-3.57,3.57s-3.57-1.6-3.57-3.57,1.6-3.57,3.57-3.57,3.57,1.6,3.57,3.57Z"/>
          <path class="cls-2" d="M398.55,312.73c0,1.97-1.6,3.57-3.57,3.57s-3.57-1.6-3.57-3.57,1.6-3.57,3.57-3.57,3.57,1.6,3.57,3.57Z"/>
          <path class="cls-2" d="M426.42,312.73c0,1.97-1.6,3.57-3.57,3.57s-3.57-1.6-3.57-3.57,1.6-3.57,3.57-3.57,3.57,1.6,3.57,3.57Z"/>
          <path class="cls-2" d="M370.68,288.51c0,1.97-1.6,3.57-3.57,3.57s-3.57-1.6-3.57-3.57,1.6-3.57,3.57-3.57,3.57,1.6,3.57,3.57Z"/>
          <path class="cls-2" d="M398.55,288.51c0,1.97-1.6,3.57-3.57,3.57s-3.57-1.6-3.57-3.57,1.6-3.57,3.57-3.57,3.57,1.6,3.57,3.57Z"/>
          <path class="cls-2" d="M426.42,288.51c0,1.97-1.6,3.57-3.57,3.57s-3.57-1.6-3.57-3.57,1.6-3.57,3.57-3.57,3.57,1.6,3.57,3.57Z"/>
          <path class="cls-2" d="M398.55,264.29c0,1.97-1.6,3.57-3.57,3.57s-3.57-1.6-3.57-3.57,1.6-3.57,3.57-3.57,3.57,1.6,3.57,3.57Z"/>
          <path class="cls-2" d="M398.55,240.08c0,1.97-1.6,3.57-3.57,3.57s-3.57-1.6-3.57-3.57,1.6-3.57,3.57-3.57,3.57,1.6,3.57,3.57Z"/>
        </g>
        <g>
          <path class="cls-2" d="M482.16,361.25c0,1.97-1.6,3.57-3.57,3.57s-3.57-1.6-3.57-3.57,1.6-3.57,3.57-3.57,3.57,1.6,3.57,3.57Z"/>
          <circle class="cls-2" cx="506.46" cy="361.25" r="3.57"/>
          <path class="cls-2" d="M537.9,361.25c0,1.97-1.6,3.57-3.57,3.57s-3.57-1.6-3.57-3.57,1.6-3.57,3.57-3.57,3.57,1.6,3.57,3.57Z"/>
          <path class="cls-2" d="M482.16,337.03c0,1.97-1.6,3.57-3.57,3.57s-3.57-1.6-3.57-3.57,1.6-3.57,3.57-3.57,3.57,1.6,3.57,3.57Z"/>
          <path class="cls-2" d="M510.03,337.03c0,1.97-1.6,3.57-3.57,3.57s-3.57-1.6-3.57-3.57,1.6-3.57,3.57-3.57,3.57,1.6,3.57,3.57Z"/>
          <path class="cls-2" d="M454.29,312.81c0,1.97-1.6,3.57-3.57,3.57s-3.57-1.6-3.57-3.57,1.6-3.57,3.57-3.57,3.57,1.6,3.57,3.57Z"/>
          <path class="cls-2" d="M482.16,312.81c0,1.97-1.6,3.57-3.57,3.57s-3.57-1.6-3.57-3.57,1.6-3.57,3.57-3.57,3.57,1.6,3.57,3.57Z"/>
          <path class="cls-2" d="M510.03,312.81c0,1.97-1.6,3.57-3.57,3.57s-3.57-1.6-3.57-3.57,1.6-3.57,3.57-3.57,3.57,1.6,3.57,3.57Z"/>
          <path class="cls-2" d="M426.42,288.6c0,1.97-1.6,3.57-3.57,3.57s-3.57-1.6-3.57-3.57,1.6-3.57,3.57-3.57,3.57,1.6,3.57,3.57Z"/>
          <path class="cls-2" d="M454.29,288.6c0,1.97-1.6,3.57-3.57,3.57s-3.57-1.6-3.57-3.57,1.6-3.57,3.57-3.57,3.57,1.6,3.57,3.57Z"/>
          <path class="cls-2" d="M482.16,288.6c0,1.97-1.6,3.57-3.57,3.57s-3.57-1.6-3.57-3.57,1.6-3.57,3.57-3.57,3.57,1.6,3.57,3.57Z"/>
          <path class="cls-2" d="M398.55,264.38c0,1.97-1.6,3.57-3.57,3.57s-3.57-1.6-3.57-3.57,1.6-3.57,3.57-3.57,3.57,1.6,3.57,3.57Z"/>
          <path class="cls-2" d="M426.42,264.38c0,1.97-1.6,3.57-3.57,3.57s-3.57-1.6-3.57-3.57,1.6-3.57,3.57-3.57,3.57,1.6,3.57,3.57Z"/>
          <path class="cls-2" d="M454.29,264.38c0,1.97-1.6,3.57-3.57,3.57s-3.57-1.6-3.57-3.57,1.6-3.57,3.57-3.57,3.57,1.6,3.57,3.57Z"/>
          <path class="cls-2" d="M482.16,264.38c0,1.97-1.6,3.57-3.57,3.57s-3.57-1.6-3.57-3.57,1.6-3.57,3.57-3.57,3.57,1.6,3.57,3.57Z"/>
          <path class="cls-2" d="M370.68,240.16c0,1.97-1.6,3.57-3.57,3.57s-3.57-1.6-3.57-3.57,1.6-3.57,3.57-3.57,3.57,1.6,3.57,3.57Z"/>
          <path class="cls-2" d="M398.55,240.16c0,1.97-1.6,3.57-3.57,3.57s-3.57-1.6-3.57-3.57,1.6-3.57,3.57-3.57,3.57,1.6,3.57,3.57Z"/>
          <path class="cls-2" d="M426.42,240.16c0,1.97-1.6,3.57-3.57,3.57s-3.57-1.6-3.57-3.57,1.6-3.57,3.57-3.57,3.57,1.6,3.57,3.57Z"/>
          <path class="cls-2" d="M454.29,240.16c0,1.97-1.6,3.57-3.57,3.57s-3.57-1.6-3.57-3.57,1.6-3.57,3.57-3.57,3.57,1.6,3.57,3.57Z"/>
          <path class="cls-2" d="M342.8,215.95c0,1.97-1.6,3.57-3.57,3.57s-3.57-1.6-3.57-3.57,1.6-3.57,3.57-3.57,3.57,1.6,3.57,3.57Z"/>
          <path class="cls-2" d="M370.68,215.95c0,1.97-1.6,3.57-3.57,3.57s-3.57-1.6-3.57-3.57,1.6-3.57,3.57-3.57,3.57,1.6,3.57,3.57Z"/>
          <path class="cls-2" d="M398.55,215.95c0,1.97-1.6,3.57-3.57,3.57s-3.57-1.6-3.57-3.57,1.6-3.57,3.57-3.57,3.57,1.6,3.57,3.57Z"/>
          <path class="cls-2" d="M426.42,215.95c0,1.97-1.6,3.57-3.57,3.57s-3.57-1.6-3.57-3.57,1.6-3.57,3.57-3.57,3.57,1.6,3.57,3.57Z"/>
          <path class="cls-2" d="M454.29,215.95c0,1.97-1.6,3.57-3.57,3.57s-3.57-1.6-3.57-3.57,1.6-3.57,3.57-3.57,3.57,1.6,3.57,3.57Z"/>
          <path class="cls-2" d="M370.68,191.73c0,1.97-1.6,3.57-3.57,3.57s-3.57-1.6-3.57-3.57,1.6-3.57,3.57-3.57,3.57,1.6,3.57,3.57Z"/>
          <path class="cls-2" d="M398.55,191.73c0,1.97-1.6,3.57-3.57,3.57s-3.57-1.6-3.57-3.57,1.6-3.57,3.57-3.57,3.57,1.6,3.57,3.57Z"/>
          <path class="cls-2" d="M426.42,191.73c0,1.97-1.6,3.57-3.57,3.57s-3.57-1.6-3.57-3.57,1.6-3.57,3.57-3.57,3.57,1.6,3.57,3.57Z"/>
          <path class="cls-2" d="M370.68,167.51c0,1.97-1.6,3.57-3.57,3.57s-3.57-1.6-3.57-3.57,1.6-3.57,3.57-3.57,3.57,1.6,3.57,3.57Z"/>
          <path class="cls-2" d="M398.55,167.51c0,1.97-1.6,3.57-3.57,3.57s-3.57-1.6-3.57-3.57,1.6-3.57,3.57-3.57,3.57,1.6,3.57,3.57Z"/>
          <path class="cls-2" d="M426.42,167.51c0,1.97-1.6,3.57-3.57,3.57s-3.57-1.6-3.57-3.57,1.6-3.57,3.57-3.57,3.57,1.6,3.57,3.57Z"/>
          <path class="cls-2" d="M398.55,143.29c0,1.97-1.6,3.57-3.57,3.57s-3.57-1.6-3.57-3.57,1.6-3.57,3.57-3.57,3.57,1.6,3.57,3.57Z"/>
          <path class="cls-2" d="M398.55,119.08c0,1.97-1.6,3.57-3.57,3.57s-3.57-1.6-3.57-3.57,1.6-3.57,3.57-3.57,3.57,1.6,3.57,3.57Z"/>
        </g>
        <g>
          <path class="cls-2" d="M621.54,361.28c0,1.97-1.6,3.57-3.57,3.57s-3.57-1.6-3.57-3.57,1.6-3.57,3.57-3.57,3.57,1.6,3.57,3.57Z"/>
          <circle class="cls-2" cx="645.84" cy="361.28" r="3.57"/>
          <path class="cls-2" d="M677.28,361.28c0,1.97-1.6,3.57-3.57,3.57s-3.57-1.6-3.57-3.57,1.6-3.57,3.57-3.57,3.57,1.6,3.57,3.57Z"/>
          <path class="cls-2" d="M621.54,337.06c0,1.97-1.6,3.57-3.57,3.57s-3.57-1.6-3.57-3.57,1.6-3.57,3.57-3.57,3.57,1.6,3.57,3.57Z"/>
          <path class="cls-2" d="M649.41,337.06c0,1.97-1.6,3.57-3.57,3.57s-3.57-1.6-3.57-3.57,1.6-3.57,3.57-3.57,3.57,1.6,3.57,3.57Z"/>
          <path class="cls-2" d="M593.67,312.84c0,1.97-1.6,3.57-3.57,3.57s-3.57-1.6-3.57-3.57,1.6-3.57,3.57-3.57,3.57,1.6,3.57,3.57Z"/>
          <path class="cls-2" d="M621.54,312.84c0,1.97-1.6,3.57-3.57,3.57s-3.57-1.6-3.57-3.57,1.6-3.57,3.57-3.57,3.57,1.6,3.57,3.57Z"/>
          <path class="cls-2" d="M649.41,312.84c0,1.97-1.6,3.57-3.57,3.57s-3.57-1.6-3.57-3.57,1.6-3.57,3.57-3.57,3.57,1.6,3.57,3.57Z"/>
          <path class="cls-2" d="M565.8,288.62c0,1.97-1.6,3.57-3.57,3.57s-3.57-1.6-3.57-3.57,1.6-3.57,3.57-3.57,3.57,1.6,3.57,3.57Z"/>
          <path class="cls-2" d="M593.67,288.62c0,1.97-1.6,3.57-3.57,3.57s-3.57-1.6-3.57-3.57,1.6-3.57,3.57-3.57,3.57,1.6,3.57,3.57Z"/>
          <path class="cls-2" d="M621.54,288.62c0,1.97-1.6,3.57-3.57,3.57s-3.57-1.6-3.57-3.57,1.6-3.57,3.57-3.57,3.57,1.6,3.57,3.57Z"/>
          <path class="cls-2" d="M537.93,264.41c0,1.97-1.6,3.57-3.57,3.57s-3.57-1.6-3.57-3.57,1.6-3.57,3.57-3.57,3.57,1.6,3.57,3.57Z"/>
          <path class="cls-2" d="M565.8,264.41c0,1.97-1.6,3.57-3.57,3.57s-3.57-1.6-3.57-3.57,1.6-3.57,3.57-3.57,3.57,1.6,3.57,3.57Z"/>
          <path class="cls-2" d="M593.67,264.41c0,1.97-1.6,3.57-3.57,3.57s-3.57-1.6-3.57-3.57,1.6-3.57,3.57-3.57,3.57,1.6,3.57,3.57Z"/>
          <path class="cls-2" d="M621.54,264.41c0,1.97-1.6,3.57-3.57,3.57s-3.57-1.6-3.57-3.57,1.6-3.57,3.57-3.57,3.57,1.6,3.57,3.57Z"/>
          <path class="cls-2" d="M510.06,240.19c0,1.97-1.6,3.57-3.57,3.57s-3.57-1.6-3.57-3.57,1.6-3.57,3.57-3.57,3.57,1.6,3.57,3.57Z"/>
          <path class="cls-2" d="M537.93,240.19c0,1.97-1.6,3.57-3.57,3.57s-3.57-1.6-3.57-3.57,1.6-3.57,3.57-3.57,3.57,1.6,3.57,3.57Z"/>
          <path class="cls-2" d="M565.8,240.19c0,1.97-1.6,3.57-3.57,3.57s-3.57-1.6-3.57-3.57,1.6-3.57,3.57-3.57,3.57,1.6,3.57,3.57Z"/>
          <path class="cls-2" d="M593.67,240.19c0,1.97-1.6,3.57-3.57,3.57s-3.57-1.6-3.57-3.57,1.6-3.57,3.57-3.57,3.57,1.6,3.57,3.57Z"/>
          <path class="cls-2" d="M482.19,215.97c0,1.97-1.6,3.57-3.57,3.57s-3.57-1.6-3.57-3.57,1.6-3.57,3.57-3.57,3.57,1.6,3.57,3.57Z"/>
          <path class="cls-2" d="M510.06,215.97c0,1.97-1.6,3.57-3.57,3.57s-3.57-1.6-3.57-3.57,1.6-3.57,3.57-3.57,3.57,1.6,3.57,3.57Z"/>
          <path class="cls-2" d="M537.93,215.97c0,1.97-1.6,3.57-3.57,3.57s-3.57-1.6-3.57-3.57,1.6-3.57,3.57-3.57,3.57,1.6,3.57,3.57Z"/>
          <path class="cls-2" d="M565.8,215.97c0,1.97-1.6,3.57-3.57,3.57s-3.57-1.6-3.57-3.57,1.6-3.57,3.57-3.57,3.57,1.6,3.57,3.57Z"/>
          <path class="cls-2" d="M593.67,215.97c0,1.97-1.6,3.57-3.57,3.57s-3.57-1.6-3.57-3.57,1.6-3.57,3.57-3.57,3.57,1.6,3.57,3.57Z"/>
          <path class="cls-2" d="M510.06,191.76c0,1.97-1.6,3.57-3.57,3.57s-3.57-1.6-3.57-3.57,1.6-3.57,3.57-3.57,3.57,1.6,3.57,3.57Z"/>
          <path class="cls-2" d="M537.93,191.76c0,1.97-1.6,3.57-3.57,3.57s-3.57-1.6-3.57-3.57,1.6-3.57,3.57-3.57,3.57,1.6,3.57,3.57Z"/>
          <path class="cls-2" d="M565.8,191.76c0,1.97-1.6,3.57-3.57,3.57s-3.57-1.6-3.57-3.57,1.6-3.57,3.57-3.57,3.57,1.6,3.57,3.57Z"/>
          <path class="cls-2" d="M510.06,167.54c0,1.97-1.6,3.57-3.57,3.57s-3.57-1.6-3.57-3.57,1.6-3.57,3.57-3.57,3.57,1.6,3.57,3.57Z"/>
          <path class="cls-2" d="M537.93,167.54c0,1.97-1.6,3.57-3.57,3.57s-3.57-1.6-3.57-3.57,1.6-3.57,3.57-3.57,3.57,1.6,3.57,3.57Z"/>
          <path class="cls-2" d="M565.8,167.54c0,1.97-1.6,3.57-3.57,3.57s-3.57-1.6-3.57-3.57,1.6-3.57,3.57-3.57,3.57,1.6,3.57,3.57Z"/>
          <path class="cls-2" d="M537.93,143.32c0,1.97-1.6,3.57-3.57,3.57s-3.57-1.6-3.57-3.57,1.6-3.57,3.57-3.57,3.57,1.6,3.57,3.57Z"/>
          <path class="cls-2" d="M537.93,119.1c0,1.97-1.6,3.57-3.57,3.57s-3.57-1.6-3.57-3.57,1.6-3.57,3.57-3.57,3.57,1.6,3.57,3.57Z"/>
        </g>
      </g>
    </g>
  </g>
</svg>